# xmcd
#
# Track frame offsets:
#	150
#	9280
#	25175
#	42350
#	56985
#	68970
#	73855
#	86172
#	96380
#	106632
#	119390
#	135265
#	147000
#	156020
#	160475
#	177595
#	193567
#	203280
#	214250
#
# Disc length: 3109 seconds
#
# Revision: 1
# Processed by: cddbd v1.5.1PL0 Copyright (c) Steve Scherf et al.
# Submitted via: CDex 1.50Beta5
#
DISCID=0b0c2313
DTITLE=Jet Stream - Summer Resort エンジョイ!リゾート・アイランド
DYEAR=1900
DGENRE=Unclassifiable
TTITLE0=ミスター・ロンリー
TTITLE1=ひき潮
TTITLE2=夏の日の恋
TTITLE3=白い渚のブルース
TTITLE4=いそしぎ
TTITLE5=ナレーション『ウィルシャー大通り』
TTITLE6=蜜の味
TTITLE7=マルタ島の砂
TTITLE8=波路はるかに
TTITLE9=イパネマの娘
TTITLE10=エストレリータ
TTITLE11=グリーン・アイズ
TTITLE12=ブルー・ハワイ
TTITLE13=ナレーション『島めぐり』
TTITLE14=バリ・ハイ
TTITLE15=魅惑の宵
TTITLE16=砂に書いたラヴレター
TTITLE17=夕日に赤い帆
TTITLE18=夢幻飛行
EXTD=
EXTT0=
EXTT1=
EXTT2=
EXTT3=
EXTT4=
EXTT5=
EXTT6=
EXTT7=
EXTT8=
EXTT9=
EXTT10=
EXTT11=
EXTT12=
EXTT13=
EXTT14=
EXTT15=
EXTT16=
EXTT17=
EXTT18=
PLAYORDER=
